<svg width="16" height="16" viewBox="0 0 16 16" fill="none" xmlns="http://www.w3.org/2000/svg">
<path d="M7.46963 9.47C7.17674 9.76289 7.17674 10.2378 7.46963 10.5307C7.76252 10.8235 8.2374 10.8235 8.53029 10.5307L7.46963 9.47ZM9.99996 8.00033L10.5303 8.53066C10.8232 8.23776 10.8232 7.76289 10.5303 7.47L9.99996 8.00033ZM8.53029 5.47C8.2374 5.1771 7.76252 5.1771 7.46963 5.47C7.17674 5.76289 7.17674 6.23776 7.46963 6.53066L8.53029 5.47ZM2.66663 7.25033C2.25241 7.25033 1.91663 7.58611 1.91663 8.00033C1.91663 8.41454 2.25241 8.75033 2.66663 8.75033L2.66663 7.25033ZM6.82288 13.2322L6.53586 13.9251L6.82288 13.2322ZM6.74996 11.3337C6.74996 10.9194 6.41417 10.5837 5.99996 10.5837C5.58575 10.5837 5.24996 10.9194 5.24996 11.3337H6.74996ZM6.10145 12.5106L5.40854 12.7976L6.10145 12.5106ZM13.1881 12.6057L12.5199 12.2652L13.1881 12.6057ZM12.6051 13.1883L12.2647 12.5201L12.6051 13.1883ZM12.6051 2.81232L12.9456 2.14406L12.6051 2.81232ZM13.1881 3.39502L12.5199 3.73551L13.1881 3.39502ZM5.24996 4.66698C5.24996 5.0812 5.58575 5.41698 5.99996 5.41698C6.41417 5.41698 6.74996 5.0812 6.74996 4.66698H5.24996ZM8.53029 10.5307L10.5303 8.53066L9.46963 7.47L7.46963 9.47L8.53029 10.5307ZM10.5303 7.47L8.53029 5.47L7.46963 6.53066L9.46963 8.53066L10.5303 7.47ZM9.99996 7.25033L2.66663 7.25033L2.66663 8.75033L9.99996 8.75033V7.25033ZM7.99996 3.41699H11.2V1.91699H7.99996V3.41699ZM12.5833 4.80029V11.2003H14.0833V4.80029H12.5833ZM11.2 12.5837H7.99996V14.0837H11.2V12.5837ZM7.99996 12.5837C7.67907 12.5837 7.47591 12.5833 7.32136 12.5727C7.17352 12.5626 7.12575 12.5458 7.10989 12.5393L6.53586 13.9251C6.76503 14.02 6.99517 14.054 7.2193 14.0692C7.43673 14.0841 7.6996 14.0837 7.99996 14.0837V12.5837ZM5.24996 11.3337C5.24996 11.634 5.24955 11.8969 5.26439 12.1143C5.27968 12.3384 5.31363 12.5684 5.40854 12.7976L6.79436 12.2236C6.78778 12.2077 6.77099 12.1599 6.76091 12.0121C6.75037 11.8577 6.74996 11.6545 6.74996 11.3337H5.24996ZM7.10989 12.5393C6.96714 12.4801 6.85365 12.3667 6.79436 12.2236L5.40854 12.7976C5.61991 13.3079 6.0252 13.7136 6.53586 13.9251L7.10989 12.5393ZM12.5833 11.2003C12.5833 11.5861 12.5827 11.8303 12.5677 12.0151C12.5533 12.1911 12.5296 12.246 12.5199 12.2652L13.8564 12.9462C13.9919 12.6801 14.0408 12.4057 14.0627 12.137C14.0839 11.8771 14.0833 11.5612 14.0833 11.2003H12.5833ZM11.2 14.0837C11.561 14.0837 11.8768 14.0842 12.1367 14.063C12.4054 14.041 12.6797 13.9921 12.9456 13.8566L12.2647 12.5201C12.2454 12.5299 12.1904 12.5536 12.0145 12.568C11.8299 12.5831 11.5857 12.5837 11.2 12.5837V14.0837ZM12.5199 12.2652C12.4641 12.3746 12.3748 12.4639 12.2647 12.5201L12.9456 13.8566C13.3373 13.657 13.6564 13.3386 13.8564 12.9462L12.5199 12.2652ZM11.2 3.41699C11.5857 3.41699 11.8299 3.41758 12.0145 3.43267C12.1904 3.44704 12.2454 3.47075 12.2647 3.48057L12.9456 2.14406C12.6797 2.00856 12.4054 1.95961 12.1367 1.93765C11.8768 1.91641 11.5609 1.91699 11.2 1.91699V3.41699ZM14.0833 4.80029C14.0833 4.43938 14.0839 4.12353 14.0627 3.86363C14.0408 3.59495 13.9919 3.32056 13.8564 3.05453L12.5199 3.73551C12.5296 3.75469 12.5533 3.80957 12.5677 3.98554C12.5827 4.17029 12.5833 4.41447 12.5833 4.80029H14.0833ZM12.2647 3.48057C12.3747 3.53665 12.4641 3.62606 12.5199 3.73551L13.8564 3.05453C13.6565 2.66222 13.3373 2.34364 12.9456 2.14406L12.2647 3.48057ZM6.74996 4.66698C6.74996 4.34609 6.75037 4.14299 6.76091 3.9885C6.77099 3.84074 6.78778 3.79298 6.79436 3.77708L5.40854 3.20306C5.31363 3.43219 5.27968 3.66226 5.26439 3.88639C5.24955 4.10378 5.24996 4.36662 5.24996 4.66698H6.74996ZM7.99996 1.91699C7.69959 1.91699 7.43672 1.91659 7.21929 1.93142C6.99516 1.94671 6.76502 1.98066 6.53586 2.07558L7.10989 3.4614C7.12576 3.45482 7.17354 3.43802 7.32137 3.42794C7.47592 3.4174 7.67907 3.41699 7.99996 3.41699V1.91699ZM6.79436 3.77708C6.85364 3.63399 6.96712 3.52053 7.10989 3.4614L6.53586 2.07558C6.02522 2.28709 5.61992 2.69275 5.40854 3.20306L6.79436 3.77708Z"/>
</svg>
