<svg width="16" height="16" viewBox="0 0 16 16" fill="none" xmlns="http://www.w3.org/2000/svg">
<path d="M11.25 12.667C11.25 13.0812 11.5858 13.417 12 13.417C12.4142 13.417 12.75 13.0812 12.75 12.667H11.25ZM3.25 12.667C3.25 13.0812 3.58579 13.417 4 13.417C4.41421 13.417 4.75 13.0812 4.75 12.667H3.25ZM12.75 12.667C12.75 11.6018 12.1024 10.7293 11.2445 10.1573C10.3813 9.58188 9.23199 9.25033 8 9.25033V10.7503C8.97715 10.7503 9.82787 11.0157 10.4124 11.4054C11.0022 11.7986 11.25 12.2594 11.25 12.667H12.75ZM8 9.25033C6.76801 9.25033 5.61874 9.58188 4.75555 10.1573C3.8976 10.7293 3.25 11.6018 3.25 12.667H4.75C4.75 12.2594 4.99783 11.7986 5.5876 11.4054C6.17213 11.0157 7.02285 10.7503 8 10.7503V9.25033ZM8 7.25033C6.94145 7.25033 6.08333 6.3922 6.08333 5.33366H4.58333C4.58333 7.22063 6.11303 8.75033 8 8.75033V7.25033ZM6.08333 5.33366C6.08333 4.27511 6.94145 3.41699 8 3.41699V1.91699C6.11303 1.91699 4.58333 3.44669 4.58333 5.33366H6.08333ZM8 3.41699C9.05855 3.41699 9.91667 4.27511 9.91667 5.33366H11.4167C11.4167 3.44669 9.88697 1.91699 8 1.91699V3.41699ZM9.91667 5.33366C9.91667 6.3922 9.05855 7.25033 8 7.25033V8.75033C9.88697 8.75033 11.4167 7.22063 11.4167 5.33366H9.91667Z" />
</svg>
